<svg xmlns="http://www.w3.org/2000/svg" width="182.11" height="148.357" viewBox="0 0 182.11 148.357"><defs><style>.a{fill:#e6e6e6;}.b{fill:#f2f2f2;}.c{fill:#ffb7b7;}.d{fill:#2f2e41;}.e{fill:#cbcbcb;}.f{fill:#fff;}.g{fill:#3f3d56;}.h{fill:#0c66b4;}</style></defs><g transform="translate(0 0)"><path class="a" d="M454.389,676.644a5.582,5.582,0,0,0,5.307,1.34c2.371-.673,3.98-2.812,5.409-4.821l4.226-5.941-3.562.653a21.726,21.726,0,0,0-7.417,2.307c-2.231,1.344-4.017,3.743-3.876,6.343" transform="translate(-401.01 -536.838)"/><path class="b" d="M441.59,701.947a28.863,28.863,0,0,1,2.356-6.23,10.456,10.456,0,0,1,4.083-4.177,9.115,9.115,0,0,1,3-.977c.274-.039.318.388.046.426a8.67,8.67,0,0,0-4.823,2.372,13.881,13.881,0,0,0-3.122,5.16c-.428,1.145-.774,2.318-1.118,3.491a.221.221,0,0,1-.245.179.216.216,0,0,1-.179-.245Z" transform="translate(-391.522 -554.138)"/><path class="c" d="M701.053,402.825a2.856,2.856,0,0,1,3.52,2.606l9.771,2.747-3.987,3.453-8.668-3.138a2.872,2.872,0,0,1-.637-5.668Z" transform="translate(-582.208 -340.794)"/><path class="c" d="M544.315,529.821h-2.848l-1.355-10.986h4.2Z" transform="translate(-400.36 -384.588)"/><path class="d" d="M780.945,724.7h-9.184v-.116a3.575,3.575,0,0,1,3.574-3.575h5.61Z" transform="translate(-636.264 -576.711)"/><path class="c" d="M608.817,529.821h-2.848l-1.355-10.986h4.2Z" transform="translate(-448.172 -384.588)"/><path class="d" d="M845.447,724.7h-9.184v-.116a3.575,3.575,0,0,1,3.574-3.574h5.61Z" transform="translate(-684.076 -576.711)"/><path class="d" d="M535.344,313.341l-4.2,29.061,1.045,30.618,6.3.5,1.97-27.459,5.015-15.311,2.948,21.826.121,20.443,6.506.5,2.269-42.978-1.669-18.691Z" transform="translate(-393.715 -231.163)"/><circle class="c" cx="6.637" cy="6.637" r="6.637" transform="translate(147.126 29.996)"/><path class="e" d="M805.55,340.861l-7.327,36.914s12.337,3.541,17.741.272,2.983-13.359,2.983-13.359l-.99-17.17-1.829-4.342-1.552-3.584Z" transform="translate(-655.878 -293.981)"/><path class="d" d="M783.857,368.646l2.531-26.919-2.024,1.478-7.078,2.3-.484,18.952-4.951,24.922s3.539,6.905,7.925-4.519Z" transform="translate(-636.33 -295.563)"/><path class="d" d="M500.612,195.842l-3.406-2.835-7.655,16.63-8.543-1.871-.4,5.045,12.377,4.9,8.435-11.742Z" transform="translate(-356.25 -143.067)"/><path class="d" d="M609.144,196.914l.954-21.909,3.511,2.719,6.27,1.748-.919,17.442,1.323,27.065-6.573,2.082-1.845-17.078Z" transform="translate(-451.53 -129.723)"/><path class="c" d="M858.726,462.445a2.856,2.856,0,0,1,3.8-2.177l6.442-7.844,1.56,5.039-6.357,6.676a2.872,2.872,0,0,1-5.446-1.694Z" transform="translate(-700.691 -377.618)"/><path class="d" d="M630.363,194.7l4.2-2.432,10.562,20.858-10.3,14.3-5.873-4.7,7.132-9.3-6.5-9.99Z" transform="translate(-466.213 -142.518)"/><path class="d" d="M828.036,273.825l.322-.648-1.619-.8a4.745,4.745,0,0,0-5.018-2.09c-3.232.817-4.686,1.306-4.686,1.306l-1.615.813.811.806-1.454.489.971.483-1.13.65.608,3.33s1.011-2.526,2.953-1.561,5.5-.5,5.5-.5l3.087,5.975s.637-2.095,1.773-1.536C828.536,280.539,831.437,275.918,828.036,273.825Z" transform="translate(-668.031 -242.498)"/><path class="f" d="M368.691,322.019h-.042l-24.341,10.394-33.3,14.221a1.074,1.074,0,0,1-.823,0l-34.359-14.255-24.939-10.347-.038-.017H250.8a1.486,1.486,0,0,0-1.484,1.484v64.456a1.486,1.486,0,0,0,1.484,1.484H368.691a1.486,1.486,0,0,0,1.484-1.484V323.5A1.486,1.486,0,0,0,368.691,322.019Z" transform="translate(-249.003 -280.954)"/><path class="g" d="M371.53,204.8a.211.211,0,0,1-.121-.038l-58.638-40.837a1.063,1.063,0,0,0-1.215,0l-58.215,40.835a.212.212,0,1,1-.244-.347l58.215-40.835a1.489,1.489,0,0,1,1.7,0l58.638,40.837a.212.212,0,0,1-.121.386Z" transform="translate(-251.736 -163.315)"/><path class="a" d="M19.063,47.989,74.616,6.817l55.975,44.1L77.479,82.4,48.643,75.832Z" transform="translate(-14.131 -5.053)"/><path class="h" d="M308.581,530.075H281.136a1.282,1.282,0,0,1,0-2.564h27.449a1.282,1.282,0,0,1,0,2.564Z" transform="translate(-271.634 -433.276)"/><path class="h" d="M290.983,508.77h-9.846a1.282,1.282,0,0,1,0-2.564h9.85a1.282,1.282,0,0,1,0,2.564h0Z" transform="translate(-271.634 -417.483)"/><path class="h" d="M384.982,245.081a1.6,1.6,0,0,1-.608-.119l-34.261-14.216v-44.5a1.486,1.486,0,0,1,1.484-1.484h65.728a1.486,1.486,0,0,1,1.484,1.484v44.53l-.064.028-33.136,14.151A1.615,1.615,0,0,1,384.982,245.081Z" transform="translate(-323.715 -179.213)"/><path class="g" d="M367.462,322.019h-.042l-24.341,10.394-33.3,14.221a1.074,1.074,0,0,1-.823,0l-34.359-14.255-24.939-10.347-.038-.017h-.042a1.486,1.486,0,0,0-1.484,1.484v64.456a1.486,1.486,0,0,0,1.484,1.484H367.462a1.486,1.486,0,0,0,1.484-1.484V323.5A1.486,1.486,0,0,0,367.462,322.019Zm1.06,65.94a1.061,1.061,0,0,1-1.06,1.06H249.575a1.061,1.061,0,0,1-1.06-1.06V323.5a1.062,1.062,0,0,1,1.02-1.06l25.059,10.4,34.2,14.189a1.51,1.51,0,0,0,1.153-.006l33.135-14.151,24.426-10.43a1.064,1.064,0,0,1,1.018,1.06Z" transform="translate(-248.091 -280.954)"/><path class="f" d="M392.587,239.33H369.264a1.7,1.7,0,0,1,0-3.392h23.323a1.7,1.7,0,1,1,0,3.392Z" transform="translate(-336.654 -217.147)"/><path class="f" d="M380.5,211.469H369.264a1.7,1.7,0,0,1,0-3.392H380.5a1.7,1.7,0,1,1,0,3.392Z" transform="translate(-336.654 -196.495)"/><path class="f" d="M443.372,304.885H407.752a1.7,1.7,0,1,1,0-3.392h35.621a1.7,1.7,0,0,1,0,3.392Z" transform="translate(-365.183 -265.74)"/><path class="f" d="M443.372,335.205H407.752a1.7,1.7,0,0,1,0-3.392h35.621a1.7,1.7,0,0,1,0,3.392Z" transform="translate(-365.183 -288.214)"/><path class="e" d="M755.218,734.832h-68.05a.259.259,0,0,1,0-.517h68.05a.259.259,0,0,1,0,.517Z" transform="translate(-573.367 -586.57)"/><path class="e" d="M419.266,734.832h-25.1a.259.259,0,1,1,0-.517h25.1a.259.259,0,1,1,0,.517Z" transform="translate(-356.179 -586.57)"/><path class="a" d="M424.786,656.074a5.582,5.582,0,0,0,4.708-2.792c1.207-2.149.839-4.8.435-7.232l-1.193-7.192-2.065,2.975a21.726,21.726,0,0,0-3.632,6.866c-.634,2.526-.209,5.487,1.725,7.231" transform="translate(-377.57 -515.812)"/><path class="b" d="M434.242,693.917a28.861,28.861,0,0,1-2.723-6.078,10.456,10.456,0,0,1-.05-5.841,9.119,9.119,0,0,1,1.44-2.81c.167-.221.5.05.333.27a8.67,8.67,0,0,0-1.747,5.082,13.88,13.88,0,0,0,1.425,5.861c.5,1.114,1.086,2.189,1.669,3.263a.221.221,0,0,1-.047.3.216.216,0,0,1-.3-.047Z" transform="translate(-383.729 -545.646)"/></g></svg>