<svg xmlns="http://www.w3.org/2000/svg" width="16.289" height="16.289" viewBox="0 0 16.289 16.289"><defs><style>.a{fill:#0c66b4;}</style></defs><path class="a" d="M15.125,2.25H1.16A1.169,1.169,0,0,0,0,3.424v13.94a1.169,1.169,0,0,0,1.16,1.174H15.125a1.172,1.172,0,0,0,1.163-1.174V3.424A1.172,1.172,0,0,0,15.125,2.25ZM4.923,16.212H2.509V8.438H4.927v7.773ZM3.716,7.377a1.4,1.4,0,1,1,1.4-1.4A1.4,1.4,0,0,1,3.716,7.377Zm10.257,8.835H11.558V12.43c0-.9-.018-2.062-1.254-2.062-1.258,0-1.451.982-1.451,2v3.847H6.439V8.438H8.755V9.5h.033a2.543,2.543,0,0,1,2.287-1.254c2.443,0,2.9,1.611,2.9,3.7Z" transform="translate(0 -2.25)"/></svg>